Coordinates
version=1
nRows=15
nColumns=42
inDegrees=yes

Units are S.I. units (second, meters, Newtons, ...)
If the header above contains a line with 'inDegrees', this indicates whether rotational values are in degrees (yes) or radians (no).

endheader
time	pelvis_tilt	pelvis_list	pelvis_rotation	pelvis_tx	pelvis_ty	pelvis_tz	hip_flexion_r	hip_adduction_r	hip_rotation_r	knee_angle_r	knee_adduction_r	knee_angle_r_beta	ankle_angle_r	subtalar_angle_r	mtp_angle_r	hip_flexion_l	hip_adduction_l	hip_rotation_l	knee_angle_l	knee_adduction_l	knee_angle_l_beta	ankle_angle_l	subtalar_angle_l	mtp_angle_l	lumbar_extension	lumbar_bending	lumbar_rotation	arm_flex_r	arm_add_r	arm_rot_r	elbow_flex_r	pro_sup_r	wrist_flex_r	wrist_dev_r	arm_flex_l	arm_add_l	arm_rot_l	elbow_flex_l	pro_sup_l	wrist_flex_l	wrist_dev_l
      2.91000000	     -4.31375530	      0.62681054	     -0.25983294	      1.53823778	      0.93719226	     -0.06750967	     -6.18654407	      3.52118266	      1.31299715	      4.01272002	     -7.70714688	      0.07003518	     22.35237365	      6.98856181	     -7.50039272	     30.99868851	     -0.46624363	      5.23168582	     25.30863509	     -0.23091583	      0.44171901	      4.04326148	    -15.78241015	     -7.50039272	     -2.36751044	     -4.47354900	     -0.75850044	      3.26113842	    -13.50754087	      1.80081346	     33.12814237	     90.00000001	      0.00000000	      0.00000000	    -12.01647918	    -11.26811344	    -12.89592195	     17.60413438	     90.00000001	      0.00000000	      0.00000000
      2.92000000	     -4.84867412	      0.02036517	     -0.33666852	      1.54805791	      0.93389504	     -0.06783723	     -6.25534199	      4.22037676	      1.32436484	      4.11080349	     -7.84359229	      0.07174706	     22.90467740	      7.16589622	     -7.50038564	     31.68737236	     -1.11274734	      5.27544809	     22.02197784	     -0.98477622	      0.38435602	      3.96749500	    -14.41013794	     -7.50038564	     -1.91614091	     -3.85299579	     -0.61005589	      3.80856068	    -13.82322932	      2.17836702	     33.08135248	     90.00000001	      0.00000000	      0.00000000	    -12.57512824	    -11.10529870	    -12.91228233	     17.56856531	     90.00000001	      0.00000000	      0.00000000
      2.93000000	     -4.91269579	     -0.35886200	     -0.36861104	      1.55838171	      0.93119043	     -0.06853634	     -6.92834743	      4.51202314	      0.97960075	      4.07954801	     -7.71142687	      0.07120154	     23.44059339	      7.49484095	     -7.50036898	     31.61249469	     -1.42194953	      5.05421958	     18.57179415	     -1.93883031	      0.32413896	      3.96784232	    -12.64274624	     -7.50036898	     -1.98659210	     -3.47374175	     -0.54404965	      4.39710512	    -14.15866358	      2.75908986	     33.02081702	     90.00000001	      0.00000000	      0.00000000	    -13.00293028	    -10.94973639	    -13.14194251	     17.47038476	     90.00000001	      0.00000000	      0.00000000
      2.94000000	     -5.44048854	     -1.00000306	     -0.51538471	      1.56841450	      0.92781507	     -0.06890057	     -7.00130355	      5.24220079	      0.93506795	      4.19829904	     -7.85239802	      0.07327414	     23.95649853	      7.67674966	     -7.50036331	     32.35271697	     -2.13944834	      4.55014069	     15.89696888	     -2.73621399	      0.27745445	      3.86817651	    -11.21410469	     -7.50036331	     -1.52717444	     -2.81356842	     -0.31195183	      4.85804081	    -14.45444693	      3.03037546	     32.90843345	     90.00000001	      0.00000000	      0.00000000	    -13.45343910	    -10.78012266	    -13.15928534	     17.42783679	     90.00000001	      0.00000000	      0.00000000
      2.95000000	     -5.81473162	     -1.54311646	     -0.68459949	      1.57860688	      0.92467199	     -0.06933280	     -7.20343708	      5.81124875	      0.92891042	      4.45479910	     -7.88901680	      0.07775091	     24.47193060	      7.86926731	     -7.50035712	     32.80787531	     -2.80228403	      3.85418400	     13.28496383	     -3.38467351	      0.23186636	      3.88667619	     -9.24246684	     -7.50035712	     -1.24675827	     -2.25756817	     -0.13635723	      5.35879950	    -14.70927289	      3.37358309	     32.79599084	     90.00000001	      0.00000000	      0.00000000	    -13.85755782	    -10.64022029	    -13.21172497	     17.32930342	     90.00000001	      0.00000000	      0.00000000
      2.96000000	     -5.60483344	     -1.82479275	     -0.94433413	      1.58962045	      0.92224976	     -0.07004584	     -8.12844637	      5.92500440	      0.60725217	      4.61155269	     -7.71662458	      0.08048678	     25.01273065	      8.46939441	     -7.50033699	     32.87699489	     -3.29590331	      1.08253011	     11.51642738	     -4.07585723	      0.20099958	      5.29213178	     -4.44830015	     -7.50033699	     -1.58155097	     -1.97523974	      0.08831693	      5.79370533	    -14.99096232	      3.85569578	     32.89319046	     90.00000001	      0.00000000	      0.00000000	    -14.11644991	    -10.44432236	    -13.67987171	     17.10399933	     90.00000001	      0.00000000	      0.00000000
      2.97000000	     -6.07886557	     -2.33532953	     -1.15254714	      1.59988046	      0.91915775	     -0.07052452	     -8.19156858	      6.47668194	      0.68874250	      4.93104915	     -7.81491075	      0.08606304	     25.40489883	      8.58367902	     -7.50033195	     33.62931690	     -3.98446524	      0.02897377	      9.96245940	     -4.34113952	      0.17387772	      5.18081659	     -3.13025936	     -7.50033195	     -1.19848145	     -1.46359596	      0.33826788	      6.14157073	    -15.15444749	      3.94392641	     32.74670272	     90.00000001	      0.00000000	      0.00000000	    -14.41459188	    -10.32315575	    -13.70058121	     17.05426671	     90.00000001	      0.00000000	      0.00000000
      2.98000000	     -6.11041480	     -2.59447955	     -1.52722482	      1.61091249	      0.91663319	     -0.07121967	     -8.73264429	      6.58265375	      0.64825286	      5.37391224	     -7.71520725	      0.09379246	     25.89062169	      8.89638982	     -7.50030998	     34.26598224	     -4.65459134	     -3.45245022	      9.50729704	     -4.48618700	      0.16593364	      6.83284914	      2.05059527	     -7.50030998	     -1.25409765	     -1.19726728	      0.69927351	      6.43591929	    -15.32500048	      4.01969672	     32.77529078	     90.00000001	      0.00000000	      0.00000000	    -14.58149021	    -10.15984337	    -14.07531466	     16.80287623	     90.00000001	      0.00000000	      0.00000000
      2.99000000	     -6.28381671	     -2.81514020	     -1.78811829	      1.62172213	      0.91417304	     -0.07203443	     -9.10552214	      6.67551471	      0.71087218	      5.81003111	     -7.65034182	      0.10140417	     26.21428928	      8.91915765	     -7.50029158	     34.76843514	     -5.10812720	     -5.36153161	      9.00408951	     -4.51539397	      0.15715101	      7.33888302	      4.49707469	     -7.50029158	     -1.18755600	     -0.99402207	      0.98314189	      6.67805838	    -15.41847113	      3.96200517	     32.71301227	     90.00000001	      0.00000000	      0.00000000	    -14.69322523	    -10.07041542	    -14.26056965	     16.62028677	     90.00000001	      0.00000000	      0.00000000
      3.00000000	     -6.49145039	     -3.02213228	     -1.75574419	      1.63253685	      0.91180322	     -0.07326890	     -9.51418179	      6.76887109	      0.68244736	      6.10119438	     -7.56299559	      0.10648593	     26.25975860	      8.90427413	     -7.50029003	     35.18382601	     -5.22813248	     -5.80703803	      8.71578071	     -4.54626405	      0.15211907	      7.25311926	      4.59177553	     -7.50029003	     -1.10736342	     -0.82574139	      0.94665338	      6.83233523	    -15.45962286	      3.92303829	     32.76318410	     90.00000001	      0.00000000	      0.00000000	    -14.82936637	    -10.04529126	    -14.24329743	     16.58393100	     90.00000001	      0.00000000	      0.00000000
      3.01000000	     -6.67377348	     -3.13495152	     -1.78563678	      1.64360912	      0.90962837	     -0.07447941	     -9.92913003	      6.73884894	      0.72808868	      6.45885450	     -7.50484628	      0.11272828	     26.26757552	      8.90581659	     -7.50028879	     35.44866762	     -5.26691016	     -5.97025103	      8.68425788	     -4.52537972	      0.15156889	      7.13232906	      4.74166051	     -7.50028879	     -1.03035056	     -0.77723759	      1.00682276	      6.87644003	    -15.49977515	      3.88123029	     32.76482859	     90.00000001	      0.00000000	      0.00000000	    -14.93926952	    -10.07333264	    -14.23673179	     16.56973425	     90.00000001	      0.00000000	      0.00000000
      3.02000000	     -6.85043467	     -3.18594751	     -1.87754602	      1.65498523	      0.90769525	     -0.07578034	    -10.34666447	      6.61706137	      0.80278607	      6.84432692	     -7.45922743	      0.11945604	     26.24797293	      8.91175115	     -7.50028767	     35.57849518	     -5.24168837	     -5.95645465	      8.83905773	     -4.48052737	      0.15427066	      6.97272440	      4.91348376	     -7.50028767	     -0.91805715	     -0.76851759	      1.09585087	      6.88614034	    -15.49127342	      3.83680937	     32.76586732	     90.00000001	      0.00000000	      0.00000000	    -15.01261610	    -10.07479655	    -14.22414367	     16.56606986	     90.00000001	      0.00000000	      0.00000000
      3.03000000	     -6.81392279	     -2.93245113	     -2.26391241	      1.66641682	      0.90631268	     -0.07700063	    -10.67851529	      5.93041310	      0.90200086	      7.88167914	     -7.09381472	      0.13756125	     26.56991392	      8.73282880	     -7.50026857	     35.85417821	     -5.24937436	     -8.00028016	     10.05567065	     -4.44830028	      0.17550456	      6.94283623	      8.09875374	     -7.50026857	     -1.07414365	     -1.09931643	      1.59057569	      6.97317235	    -15.22412907	      2.77163980	     32.42479343	     90.00000001	      0.00000000	      0.00000000	    -14.63401925	    -10.10339593	    -14.46660552	     16.00984563	     90.00000001	      0.00000000	      0.00000000
      3.04000000	     -6.86003554	     -2.77561633	     -2.21527728	      1.67807936	      0.90494345	     -0.07888031	    -11.13791192	      5.42210095	      0.90830758	      8.47845916	     -6.78256846	      0.14797703	     26.33141139	      8.61188486	     -7.50026483	     35.95031388	     -4.85165307	     -7.62259130	     11.02294507	     -4.49883202	      0.19238668	      6.26031549	      8.03377157	     -7.50026483	     -1.12103672	     -1.32569941	      1.57596616	      6.85772439	    -15.16616675	      2.58629580	     32.42921279	     90.00000001	      0.00000000	      0.00000000	    -14.49592305	    -10.16771524	    -14.39096407	     15.88497537	     90.00000001	      0.00000000	      0.00000000
      3.05000000	     -6.92068388	     -2.51281164	     -2.07218884	      1.68999068	      0.90382722	     -0.08087390	    -11.53645232	      4.81369910	      0.78631072	      9.17180239	     -6.49560804	      0.16007815	     25.94616112	      8.38372682	     -7.50025978	     36.06691905	     -4.29749114	     -6.95572937	     12.20720649	     -4.50073905	      0.21305595	      5.29318819	      7.60528621	     -7.50025978	     -1.12256014	     -1.69011444	      1.51330732	      6.63348609	    -14.96068827	      2.09802742	     32.36231324	     90.00000001	      0.00000000	      0.00000000	    -14.26052987	    -10.29209611	    -14.30046298	     15.68172727	     90.00000001	      0.00000000	      0.00000000
